<svg width="85" height="85" viewBox="0 0 85 85" fill="none" xmlns="http://www.w3.org/2000/svg">
<circle cx="42.5" cy="42.5" r="42.5" fill="black"/>
<path d="M16.48 29.0401C19.5733 29.0401 22.2267 29.6001 24.44 30.7201C26.6533 31.8401 28.3467 33.4535 29.52 35.5601C30.6933 37.6668 31.28 40.1735 31.28 43.0801C31.28 45.9601 30.6933 48.4535 29.52 50.5601C28.3467 52.6401 26.6533 54.2401 24.44 55.3601C22.2267 56.4535 19.5733 57.0001 16.48 57.0001H8.2V29.0401H16.48ZM16.48 54.6801C20.3733 54.6801 23.3333 53.6668 25.36 51.6401C27.4133 49.5868 28.44 46.7335 28.44 43.0801C28.44 39.4001 27.4133 36.5335 25.36 34.4801C23.3333 32.4001 20.3733 31.3601 16.48 31.3601H11V54.6801H16.48Z" fill="#A5E255"/>
<path d="M48.995 29.04V50.2C48.995 52.3333 48.3417 54.0533 47.035 55.36C45.7283 56.64 43.9817 57.28 41.795 57.28C39.5283 57.28 37.715 56.6 36.355 55.24C35.0217 53.8533 34.355 51.9867 34.355 49.64H37.195C37.2217 51.16 37.595 52.4 38.315 53.36C39.0617 54.32 40.2217 54.8 41.795 54.8C43.2883 54.8 44.395 54.36 45.115 53.48C45.835 52.6 46.195 51.5067 46.195 50.2V29.04H48.995Z" fill="#A5E255"/>
<path d="M76.0498 29.04V57H73.2498V43.92H58.0898V57H55.2898V29.04H58.0898V41.6H73.2498V29.04H76.0498Z" fill="#A5E255"/>
</svg>
