<svg viewBox="0 0 256 272" fill="none" xmlns="http://www.w3.org/2000/svg">
<rect width="256" height="272" rx="30" fill="white"/>
<path d="M218.124 231.761H180.193V168.645C180.193 153.595 179.94 134.22 160.465 134.22C140.709 134.22 137.686 150.618 137.686 167.549V231.756H99.756V101.966H136.169V119.703H136.679C140.323 113.083 145.589 107.636 151.916 103.944C158.243 100.252 165.394 98.4523 172.607 98.7366C211.052 98.7366 218.14 125.605 218.14 160.559L218.124 231.761V231.761ZM56.956 84.225C44.799 84.2271 34.942 73.7573 34.94 60.8405C34.938 47.9237 44.791 37.4506 56.948 37.4485C69.105 37.4453 78.962 47.9152 78.964 60.832C78.9651 67.0349 76.647 72.9842 72.5197 77.3712C68.3924 81.7582 62.794 84.2236 56.956 84.225V84.225ZM75.922 231.762H37.951V101.966H75.921V231.761L75.922 231.762ZM237.034 0.0197964H18.891C8.581 -0.103454 0.126 8.67173 0 19.6261V252.37C0.122 263.33 8.576 272.113 18.89 271.998H237.034C247.37 272.134 255.857 263.351 256 252.37V19.608C255.853 8.63242 247.365 -0.141704 237.034 0.00173389" fill="#0A66C2"/>
</svg>
