<svg width="18" height="24" viewBox="0 0 18 24" fill="none" xmlns="http://www.w3.org/2000/svg">
<path d="M8.98899 23.9393L1.66369 22.0165L0.03125 4.70459H17.9687L16.3345 22.0139L8.98899 23.9393V23.9393Z" fill="#264DE4"/>
<path d="M14.9356 20.9117L16.332 6.12012H9V22.4676L14.9356 20.9117V20.9117Z" fill="#2965F1"/>
<path d="M3.77553 12.5409L3.97677 14.6641H9.00193V12.5409H3.77553ZM3.37109 8.24341L3.57521 10.3666H9.00193V8.24341H3.37109V8.24341ZM9.00193 18.0552L8.99209 18.0576L6.49121 17.4191L6.33132 15.7258H4.0771L4.39168 19.0596L8.99159 20.2669L9.00193 20.2642V18.0552Z" fill="#EBEBEB"/>
<path d="M4.25391 0H6.97359V1.07541H5.39128V2.15083H6.97373V3.22618H4.25391V0ZM7.5176 0H10.2374V0.935137H8.65497V1.12215H10.2374V3.27298H7.51767V2.29097H9.10005V2.10396H7.51753V0H7.5176ZM10.7814 0H13.5011V0.935137H11.9187V1.12215H13.5011V3.27298H10.7814V2.29097H12.3637V2.10396H10.7814V0H10.7814Z" fill="black"/>
<path d="M14.212 12.5409L14.6174 8.24341H8.99226V10.3666H12.1565L11.9521 12.5409H8.99226V14.6641H11.7574L11.4967 17.4178L8.99219 18.057V20.2659L13.5958 19.0596L13.6295 18.7008L14.1573 13.111L14.212 12.5409V12.5409Z" fill="white"/>
</svg>
