<svg width="18" height="24" viewBox="0 0 18 24" fill="none" xmlns="http://www.w3.org/2000/svg">
<path d="M17.9687 4.70459L16.3345 22.0139L8.98899 23.9393L1.66369 22.0165L0.03125 4.70459H17.9687Z" fill="#E44D26"/>
<path d="M9 22.4676L14.9356 20.9117L16.332 6.12012H9V22.4676Z" fill="#F16529"/>
<path d="M5.82521 10.3666H9.00193V8.24341H3.37109L3.42481 8.81303L3.97677 14.6641H9.00193V12.5409H6.03045L5.82521 10.3666V10.3666ZM6.33132 15.7258H4.0771L4.39168 19.0596L8.99159 20.2669L9.00193 20.2642V18.0552L8.99209 18.0576L6.49121 17.4191L6.33132 15.7258Z" fill="#EBEBEB"/>
<path d="M1.69922 0H2.84039V1.06604H3.88432V0H5.02556V3.22823H3.88439V2.14723H2.84046V3.22823H1.69929V0H1.69922ZM6.52617 1.07056H5.52169V0H8.67268V1.07056H7.66756V3.22823H6.52639V1.07056H6.52632H6.52617ZM9.17274 0H10.3626L11.0946 1.13431L11.8258 0H13.0162V3.22823H11.8797V1.62814L11.0946 2.77595H11.0749L10.2893 1.62814V3.22823H9.17274V0ZM13.5841 0H14.7257V2.16119H16.3305V3.22823H13.5841V0H13.5841Z" fill="black"/>
<path d="M8.99226 14.6641H11.7574L11.4967 17.4178L8.99219 18.057V20.2659L13.5958 19.0596L13.6295 18.7008L14.1573 13.111L14.212 12.5409H8.99226V14.6641ZM8.99226 10.3615V10.3666H14.4164L14.4614 9.88944L14.5637 8.81303L14.6174 8.24341H8.99226V10.3615V10.3615Z" fill="white"/>
</svg>
