<svg width="24" height="24" viewBox="0 0 24 24" fill="none" xmlns="http://www.w3.org/2000/svg">
    <path d="M0 0H24V24H0V0Z" fill="#F7DF1E"/>
    <path d="M6.30869 20.0562L8.14525 18.9447C8.49962 19.5729 8.82194 20.1045 9.59509 20.1045C10.3362 20.1045 10.8035 19.8146 10.8035 18.687V11.0184H13.0589V18.7188C13.0589 21.0548 11.6896 22.1181 9.69175 22.1181C7.88753 22.1181 6.84025 21.1837 6.30859 20.056L6.30869 20.0562ZM14.2839 19.8145L16.1203 18.7513C16.6037 19.5407 17.2321 20.1207 18.3436 20.1207C19.2782 20.1207 19.874 19.6534 19.874 19.009C19.874 18.2357 19.2618 17.9618 18.2308 17.5109L17.6671 17.269C16.0398 16.5765 14.9605 15.7065 14.9605 13.8699C14.9605 12.1783 16.2493 10.8894 18.2631 10.8894C19.6969 10.8894 20.728 11.3889 21.469 12.6938L19.7129 13.8216C19.3262 13.1289 18.9075 12.8551 18.263 12.8551C17.6025 12.8551 17.1836 13.2739 17.1836 13.8216C17.1836 14.4982 17.6025 14.7722 18.569 15.1911L19.1328 15.4327C21.05 16.2544 22.1294 17.0921 22.1294 18.9768C22.1294 21.0069 20.5345 22.1184 18.3918 22.1184C16.2976 22.1184 14.9443 21.1196 14.2838 19.8146" fill="black"/>
</svg>
