<svg width="30" height="24" viewBox="0 0 30 24" fill="none" xmlns="http://www.w3.org/2000/svg">
<path d="M25.8323 13.7967C24.7858 13.8025 23.8761 14.0714 23.1145 14.4689C22.835 13.8784 22.5555 13.3524 22.5063 12.9666C22.4514 12.5166 22.3857 12.2418 22.4514 11.704C22.5172 11.1662 22.8131 10.4004 22.8076 10.342C22.8022 10.2836 22.7418 10.0088 22.1391 10.003C21.5363 9.99716 21.0158 10.1258 20.9555 10.2953C20.8952 10.4647 20.7802 10.8506 20.7034 11.248C20.5993 11.8326 19.498 13.9193 18.8679 15.0124C18.6651 14.5858 18.4897 14.2116 18.4513 13.9135C18.3965 13.4635 18.3307 13.1887 18.3965 12.651C18.4623 12.1132 18.7582 11.3475 18.7527 11.289C18.7472 11.2305 18.6869 10.9558 18.0842 10.95C17.4814 10.9441 16.9608 11.0727 16.9006 11.2422C16.8403 11.4118 16.7745 11.8092 16.6486 12.195C16.5225 12.5809 15.0594 16.0648 14.6759 16.9648C14.5209 17.3291 14.3583 17.6897 14.1882 18.0463C14.1882 18.0463 14.1827 18.0638 14.1662 18.093C14.1128 18.2049 14.058 18.3159 14.0019 18.4262V18.432C13.9197 18.59 13.832 18.736 13.7882 18.736C13.7553 18.736 13.695 18.3152 13.7991 17.7423C14.0183 16.5324 14.5389 14.6501 14.5335 14.5858C14.5335 14.5507 14.632 14.2234 14.1937 14.0538C13.7662 13.8843 13.6129 14.1649 13.5744 14.1649C13.5361 14.1649 13.5086 14.2643 13.5086 14.2643C13.5086 14.2643 13.9855 12.1483 12.5991 12.1483C11.7334 12.1483 10.5388 13.1595 9.94696 14.0714C9.27422 14.4619 8.60205 14.8536 7.93046 15.2463C7.6073 15.4393 7.27298 15.6322 6.96063 15.8133C6.93865 15.79 6.9168 15.7607 6.89482 15.7374C5.21804 13.8259 2.11667 12.4756 2.24816 9.90953C2.29752 8.97425 2.59882 6.51915 8.20449 3.53805C12.8182 1.11215 16.4897 1.78431 17.1253 3.27492C18.0348 5.40272 15.1581 9.3542 10.3908 9.92696C8.5716 10.1433 7.61811 9.39507 7.37709 9.11452C7.12503 8.82219 7.0866 8.80464 6.99341 8.86318C6.84006 8.95093 6.93865 9.21393 6.99341 9.36586C7.13596 9.76324 7.72222 10.4647 8.71402 10.8097C9.59078 11.1136 11.7223 11.2832 14.3032 10.2193C17.191 9.02677 19.4486 5.71248 18.7856 2.93596C18.1225 0.11845 13.7388 -0.810942 9.59078 0.761402C7.12503 1.69681 4.45093 3.16975 2.52761 5.08707C0.242586 7.36668 -0.119115 9.34831 0.0288321 10.1784C0.560456 13.1244 4.36878 15.0417 5.89209 16.4622C5.81536 16.5089 5.74403 16.5499 5.68386 16.585C4.92215 16.9883 2.01796 18.6074 1.29467 20.3201C0.472792 22.2608 1.42628 23.6521 2.05638 23.839C4.01261 24.4178 6.02359 23.3773 7.10305 21.6587C8.18252 19.9402 8.05102 17.7072 7.55242 16.6843C7.5469 16.6726 7.54149 16.6609 7.53044 16.6492C7.72775 16.5265 7.93046 16.3979 8.12776 16.2751C8.49038 16.0465 8.85762 15.8262 9.2292 15.6145C9.04282 16.1582 8.9058 16.807 8.84012 17.7423C8.75786 18.8413 9.17972 20.2675 9.73321 20.8286C9.97986 21.0743 10.2702 21.08 10.4566 21.08C11.1032 21.08 11.3937 20.5072 11.7169 19.8291C12.1114 18.9991 12.4676 18.0346 12.4676 18.0346C12.4676 18.0346 12.0237 20.6417 13.2293 20.6417C13.6676 20.6417 14.1115 20.0337 14.3088 19.7239V19.7297C14.3088 19.7297 14.3197 19.7121 14.3417 19.6713C14.3855 19.5953 14.4129 19.5484 14.4129 19.5484V19.5369C14.5882 19.2095 14.9828 18.4671 15.5691 17.2337C16.3253 15.6438 17.0541 13.6564 17.0541 13.6564C17.0541 13.6564 17.1199 14.1416 17.3445 14.9482C17.4761 15.4217 17.7499 15.9419 17.9692 16.4446C17.7938 16.7077 17.6842 16.8538 17.6842 16.8538L17.6897 16.8597C17.5472 17.0584 17.3938 17.2746 17.2239 17.4852C16.6266 18.245 15.9143 19.1161 15.8156 19.3673C15.7005 19.6654 15.728 19.8818 15.9472 20.0571C16.1061 20.1857 16.391 20.2032 16.6815 20.1857C17.2185 20.1448 17.5965 20.0045 17.7828 19.9169C18.0733 19.8058 18.413 19.6362 18.7307 19.3848C19.3171 18.923 19.6732 18.2625 19.6404 17.3917C19.624 16.9123 19.476 16.433 19.2952 15.9828C19.35 15.9011 19.3993 15.8192 19.4541 15.7374C20.3801 14.2935 21.098 12.7094 21.098 12.7094C21.098 12.7094 21.1638 13.1945 21.3884 14.0013C21.498 14.4105 21.7227 14.8547 21.9199 15.2872C21.0487 16.0413 20.5116 16.9181 20.3199 17.491C19.9747 18.5549 20.2431 19.0341 20.7528 19.1452C20.9829 19.1978 21.3117 19.0809 21.5528 18.9698C21.8596 18.8646 22.2213 18.6835 22.5666 18.4145C23.153 17.9528 23.7172 17.3097 23.6843 16.4388C23.6679 16.0413 23.5693 15.6496 23.4323 15.2696C24.172 14.9425 25.1255 14.7612 26.3419 14.9131C28.9503 15.2404 29.4653 16.9765 29.3666 17.7073C29.268 18.4379 28.7201 18.8354 28.5394 18.9581C28.3584 19.081 28.2982 19.1218 28.3147 19.2095C28.3365 19.3381 28.4242 19.3323 28.5777 19.3089C28.7914 19.268 29.9476 18.7184 29.9969 17.374C30.0791 15.6555 28.5448 13.7792 25.8323 13.7967V13.7967ZM5.71124 21.0333C4.84541 22.0386 3.63998 22.4186 3.1194 22.0972C2.56051 21.7522 2.77967 20.2675 3.84268 19.2037C4.48923 18.5549 5.32216 17.9526 5.87564 17.5845C6.00161 17.5026 6.18799 17.3858 6.41267 17.2396C6.45098 17.2162 6.47295 17.2045 6.47295 17.2045L6.60445 17.1168C6.99341 18.6366 6.6209 19.9753 5.71124 21.0333V21.0333ZM12.0128 16.4622C11.7114 17.2455 11.0813 19.2505 10.6977 19.1394C10.3689 19.0459 10.1661 17.5261 10.6319 16.0238C10.8675 15.2696 11.3662 14.3695 11.6566 14.0188C12.1279 13.4576 12.6484 13.2705 12.7744 13.4986C12.9334 13.7967 12.1991 15.9711 12.0128 16.4622V16.4622ZM17.213 19.116C17.0869 19.1862 16.9664 19.2329 16.9115 19.1978C16.8732 19.1744 16.9664 19.0809 16.9664 19.0809C16.9664 19.0809 17.6185 18.3327 17.876 17.9936C18.024 17.7949 18.1992 17.5612 18.3856 17.298V17.374C18.3856 18.2684 17.5745 18.8705 17.2128 19.116H17.213ZM21.224 18.1398C21.1308 18.0696 21.1473 17.8358 21.4596 17.1051C21.5802 16.8187 21.865 16.3394 22.3528 15.8776C22.4076 16.0647 22.446 16.2459 22.4405 16.4154C22.435 17.5436 21.6789 17.9644 21.224 18.1398Z" fill="#CD6799"/>
</svg>
