<svg width="375" height="52" viewBox="0 0 375 52" fill="none" xmlns="http://www.w3.org/2000/svg">
<path fill-rule="evenodd" clip-rule="evenodd" d="M0 22.3478L12.5 18.3043C25 14.2609 50 6.17391 75 10.2174C100 14.2609 125 30.4348 150 39.8696C175 49.3043 200 52 225 52C250 52 275 49.3043 300 39.8696C325 30.4348 350 14.2609 362.5 6.17391L375 -1.91304V-10H362.5C350 -10 325 -10 300 -10C275 -10 250 -10 225 -10C200 -10 175 -10 150 -10C125 -10 100 -10 75 -10C50 -10 25 -10 12.5 -10H0V22.3478Z" fill="#171C1E"/>
</svg>
